<?xml version="1.0" encoding="UTF-8" standalone="no"?>
<svg width="297mm" height="210mm" viewBox="0 0 297 210" version="1.1" id="svg5" xmlns="http://www.w3.org/2000/svg" xmlns:svg="http://www.w3.org/2000/svg">
<g id="checkers">
<rect width="10" height="10" x="3.5" y="0"></rect>
<rect width="10" height="10" x="23.5" y="0"></rect>
<rect width="10" height="10" x="43.5" y="0"></rect>
<rect width="10" height="10" x="63.5" y="0"></rect>
<rect width="10" height="10" x="83.5" y="0"></rect>
<rect width="10" height="10" x="103.5" y="0"></rect>
<rect width="10" height="10" x="123.5" y="0"></rect>
<rect width="10" height="10" x="143.5" y="0"></rect>
<rect width="10" height="10" x="163.5" y="0"></rect>
<rect width="10" height="10" x="183.5" y="0"></rect>
<rect width="10" height="10" x="203.5" y="0"></rect>
<rect width="10" height="10" x="223.5" y="0"></rect>
<rect width="10" height="10" x="243.5" y="0"></rect>
<rect width="10" height="10" x="263.5" y="0"></rect>
<rect width="10" height="10" x="283.5" y="0"></rect>
<rect width="10" height="10" x="13.5" y="10"></rect>
<rect width="10" height="10" x="33.5" y="10"></rect>
<rect width="10" height="10" x="53.5" y="10"></rect>
<rect width="10" height="10" x="73.5" y="10"></rect>
<rect width="10" height="10" x="93.5" y="10"></rect>
<rect width="10" height="10" x="113.5" y="10"></rect>
<rect width="10" height="10" x="133.5" y="10"></rect>
<rect width="10" height="10" x="153.5" y="10"></rect>
<rect width="10" height="10" x="173.5" y="10"></rect>
<rect width="10" height="10" x="193.5" y="10"></rect>
<rect width="10" height="10" x="213.5" y="10"></rect>
<rect width="10" height="10" x="233.5" y="10"></rect>
<rect width="10" height="10" x="253.5" y="10"></rect>
<rect width="10" height="10" x="273.5" y="10"></rect>
<rect width="10" height="10" x="3.5" y="20"></rect>
<rect width="10" height="10" x="23.5" y="20"></rect>
<rect width="10" height="10" x="43.5" y="20"></rect>
<rect width="10" height="10" x="63.5" y="20"></rect>
<rect width="10" height="10" x="83.5" y="20"></rect>
<rect width="10" height="10" x="103.5" y="20"></rect>
<rect width="10" height="10" x="123.5" y="20"></rect>
<rect width="10" height="10" x="143.5" y="20"></rect>
<rect width="10" height="10" x="163.5" y="20"></rect>
<rect width="10" height="10" x="183.5" y="20"></rect>
<rect width="10" height="10" x="203.5" y="20"></rect>
<rect width="10" height="10" x="223.5" y="20"></rect>
<rect width="10" height="10" x="243.5" y="20"></rect>
<rect width="10" height="10" x="263.5" y="20"></rect>
<rect width="10" height="10" x="283.5" y="20"></rect>
<rect width="10" height="10" x="13.5" y="30"></rect>
<rect width="10" height="10" x="33.5" y="30"></rect>
<rect width="10" height="10" x="53.5" y="30"></rect>
<rect width="10" height="10" x="73.5" y="30"></rect>
<rect width="10" height="10" x="93.5" y="30"></rect>
<rect width="10" height="10" x="113.5" y="30"></rect>
<rect width="10" height="10" x="133.5" y="30"></rect>
<rect width="10" height="10" x="153.5" y="30"></rect>
<rect width="10" height="10" x="173.5" y="30"></rect>
<rect width="10" height="10" x="193.5" y="30"></rect>
<rect width="10" height="10" x="213.5" y="30"></rect>
<rect width="10" height="10" x="233.5" y="30"></rect>
<rect width="10" height="10" x="253.5" y="30"></rect>
<rect width="10" height="10" x="273.5" y="30"></rect>
<rect width="10" height="10" x="3.5" y="40"></rect>
<rect width="10" height="10" x="23.5" y="40"></rect>
<rect width="10" height="10" x="43.5" y="40"></rect>
<rect width="10" height="10" x="63.5" y="40"></rect>
<rect width="10" height="10" x="83.5" y="40"></rect>
<rect width="10" height="10" x="103.5" y="40"></rect>
<rect width="10" height="10" x="123.5" y="40"></rect>
<rect width="10" height="10" x="143.5" y="40"></rect>
<rect width="10" height="10" x="163.5" y="40"></rect>
<rect width="10" height="10" x="183.5" y="40"></rect>
<rect width="10" height="10" x="203.5" y="40"></rect>
<rect width="10" height="10" x="223.5" y="40"></rect>
<rect width="10" height="10" x="243.5" y="40"></rect>
<rect width="10" height="10" x="263.5" y="40"></rect>
<rect width="10" height="10" x="283.5" y="40"></rect>
<rect width="10" height="10" x="13.5" y="50"></rect>
<rect width="10" height="10" x="33.5" y="50"></rect>
<rect width="10" height="10" x="53.5" y="50"></rect>
<rect width="10" height="10" x="73.5" y="50"></rect>
<rect width="10" height="10" x="93.5" y="50"></rect>
<rect width="10" height="10" x="113.5" y="50"></rect>
<rect width="10" height="10" x="133.5" y="50"></rect>
<rect width="10" height="10" x="153.5" y="50"></rect>
<rect width="10" height="10" x="173.5" y="50"></rect>
<rect width="10" height="10" x="193.5" y="50"></rect>
<rect width="10" height="10" x="213.5" y="50"></rect>
<rect width="10" height="10" x="233.5" y="50"></rect>
<rect width="10" height="10" x="253.5" y="50"></rect>
<rect width="10" height="10" x="273.5" y="50"></rect>
<rect width="10" height="10" x="3.5" y="60"></rect>
<rect width="10" height="10" x="23.5" y="60"></rect>
<rect width="10" height="10" x="43.5" y="60"></rect>
<rect width="10" height="10" x="63.5" y="60"></rect>
<rect width="10" height="10" x="83.5" y="60"></rect>
<rect width="10" height="10" x="103.5" y="60"></rect>
<rect width="10" height="10" x="123.5" y="60"></rect>
<rect width="10" height="10" x="143.5" y="60"></rect>
<rect width="10" height="10" x="163.5" y="60"></rect>
<rect width="10" height="10" x="183.5" y="60"></rect>
<rect width="10" height="10" x="203.5" y="60"></rect>
<rect width="10" height="10" x="223.5" y="60"></rect>
<rect width="10" height="10" x="243.5" y="60"></rect>
<rect width="10" height="10" x="263.5" y="60"></rect>
<rect width="10" height="10" x="283.5" y="60"></rect>
<rect width="10" height="10" x="13.5" y="70"></rect>
<rect width="10" height="10" x="33.5" y="70"></rect>
<rect width="10" height="10" x="53.5" y="70"></rect>
<rect width="10" height="10" x="73.5" y="70"></rect>
<rect width="10" height="10" x="93.5" y="70"></rect>
<rect width="10" height="10" x="113.5" y="70"></rect>
<rect width="10" height="10" x="133.5" y="70"></rect>
<rect width="10" height="10" x="153.5" y="70"></rect>
<rect width="10" height="10" x="173.5" y="70"></rect>
<rect width="10" height="10" x="193.5" y="70"></rect>
<rect width="10" height="10" x="213.5" y="70"></rect>
<rect width="10" height="10" x="233.5" y="70"></rect>
<rect width="10" height="10" x="253.5" y="70"></rect>
<rect width="10" height="10" x="273.5" y="70"></rect>
<rect width="10" height="10" x="3.5" y="80"></rect>
<rect width="10" height="10" x="23.5" y="80"></rect>
<rect width="10" height="10" x="43.5" y="80"></rect>
<rect width="10" height="10" x="63.5" y="80"></rect>
<rect width="10" height="10" x="83.5" y="80"></rect>
<rect width="10" height="10" x="103.5" y="80"></rect>
<rect width="10" height="10" x="123.5" y="80"></rect>
<rect width="10" height="10" x="143.5" y="80"></rect>
<rect width="10" height="10" x="163.5" y="80"></rect>
<rect width="10" height="10" x="183.5" y="80"></rect>
<rect width="10" height="10" x="203.5" y="80"></rect>
<rect width="10" height="10" x="223.5" y="80"></rect>
<rect width="10" height="10" x="243.5" y="80"></rect>
<rect width="10" height="10" x="263.5" y="80"></rect>
<rect width="10" height="10" x="283.5" y="80"></rect>
<rect width="10" height="10" x="13.5" y="90"></rect>
<rect width="10" height="10" x="33.5" y="90"></rect>
<rect width="10" height="10" x="53.5" y="90"></rect>
<rect width="10" height="10" x="73.5" y="90"></rect>
<rect width="10" height="10" x="93.5" y="90"></rect>
<rect width="10" height="10" x="113.5" y="90"></rect>
<rect width="10" height="10" x="133.5" y="90"></rect>
<rect width="10" height="10" x="153.5" y="90"></rect>
<rect width="10" height="10" x="173.5" y="90"></rect>
<rect width="10" height="10" x="193.5" y="90"></rect>
<rect width="10" height="10" x="213.5" y="90"></rect>
<rect width="10" height="10" x="233.5" y="90"></rect>
<rect width="10" height="10" x="253.5" y="90"></rect>
<rect width="10" height="10" x="273.5" y="90"></rect>
<rect width="10" height="10" x="3.5" y="100"></rect>
<rect width="10" height="10" x="23.5" y="100"></rect>
<rect width="10" height="10" x="43.5" y="100"></rect>
<rect width="10" height="10" x="63.5" y="100"></rect>
<rect width="10" height="10" x="83.5" y="100"></rect>
<rect width="10" height="10" x="103.5" y="100"></rect>
<rect width="10" height="10" x="123.5" y="100"></rect>
<rect width="10" height="10" x="143.5" y="100"></rect>
<rect width="10" height="10" x="163.5" y="100"></rect>
<rect width="10" height="10" x="183.5" y="100"></rect>
<rect width="10" height="10" x="203.5" y="100"></rect>
<rect width="10" height="10" x="223.5" y="100"></rect>
<rect width="10" height="10" x="243.5" y="100"></rect>
<rect width="10" height="10" x="263.5" y="100"></rect>
<rect width="10" height="10" x="283.5" y="100"></rect>
<rect width="10" height="10" x="13.5" y="110"></rect>
<rect width="10" height="10" x="33.5" y="110"></rect>
<rect width="10" height="10" x="53.5" y="110"></rect>
<rect width="10" height="10" x="73.5" y="110"></rect>
<rect width="10" height="10" x="93.5" y="110"></rect>
<rect width="10" height="10" x="113.5" y="110"></rect>
<rect width="10" height="10" x="133.5" y="110"></rect>
<rect width="10" height="10" x="153.5" y="110"></rect>
<rect width="10" height="10" x="173.5" y="110"></rect>
<rect width="10" height="10" x="193.5" y="110"></rect>
<rect width="10" height="10" x="213.5" y="110"></rect>
<rect width="10" height="10" x="233.5" y="110"></rect>
<rect width="10" height="10" x="253.5" y="110"></rect>
<rect width="10" height="10" x="273.5" y="110"></rect>
<rect width="10" height="10" x="3.5" y="120"></rect>
<rect width="10" height="10" x="23.5" y="120"></rect>
<rect width="10" height="10" x="43.5" y="120"></rect>
<rect width="10" height="10" x="63.5" y="120"></rect>
<rect width="10" height="10" x="83.5" y="120"></rect>
<rect width="10" height="10" x="103.5" y="120"></rect>
<rect width="10" height="10" x="123.5" y="120"></rect>
<rect width="10" height="10" x="143.5" y="120"></rect>
<rect width="10" height="10" x="163.5" y="120"></rect>
<rect width="10" height="10" x="183.5" y="120"></rect>
<rect width="10" height="10" x="203.5" y="120"></rect>
<rect width="10" height="10" x="223.5" y="120"></rect>
<rect width="10" height="10" x="243.5" y="120"></rect>
<rect width="10" height="10" x="263.5" y="120"></rect>
<rect width="10" height="10" x="283.5" y="120"></rect>
<rect width="10" height="10" x="13.5" y="130"></rect>
<rect width="10" height="10" x="33.5" y="130"></rect>
<rect width="10" height="10" x="53.5" y="130"></rect>
<rect width="10" height="10" x="73.5" y="130"></rect>
<rect width="10" height="10" x="93.5" y="130"></rect>
<rect width="10" height="10" x="113.5" y="130"></rect>
<rect width="10" height="10" x="133.5" y="130"></rect>
<rect width="10" height="10" x="153.5" y="130"></rect>
<rect width="10" height="10" x="173.5" y="130"></rect>
<rect width="10" height="10" x="193.5" y="130"></rect>
<rect width="10" height="10" x="213.5" y="130"></rect>
<rect width="10" height="10" x="233.5" y="130"></rect>
<rect width="10" height="10" x="253.5" y="130"></rect>
<rect width="10" height="10" x="273.5" y="130"></rect>
<rect width="10" height="10" x="3.5" y="140"></rect>
<rect width="10" height="10" x="23.5" y="140"></rect>
<rect width="10" height="10" x="43.5" y="140"></rect>
<rect width="10" height="10" x="63.5" y="140"></rect>
<rect width="10" height="10" x="83.5" y="140"></rect>
<rect width="10" height="10" x="103.5" y="140"></rect>
<rect width="10" height="10" x="123.5" y="140"></rect>
<rect width="10" height="10" x="143.5" y="140"></rect>
<rect width="10" height="10" x="163.5" y="140"></rect>
<rect width="10" height="10" x="183.5" y="140"></rect>
<rect width="10" height="10" x="203.5" y="140"></rect>
<rect width="10" height="10" x="223.5" y="140"></rect>
<rect width="10" height="10" x="243.5" y="140"></rect>
<rect width="10" height="10" x="263.5" y="140"></rect>
<rect width="10" height="10" x="283.5" y="140"></rect>
<rect width="10" height="10" x="13.5" y="150"></rect>
<rect width="10" height="10" x="33.5" y="150"></rect>
<rect width="10" height="10" x="53.5" y="150"></rect>
<rect width="10" height="10" x="73.5" y="150"></rect>
<rect width="10" height="10" x="93.5" y="150"></rect>
<rect width="10" height="10" x="113.5" y="150"></rect>
<rect width="10" height="10" x="133.5" y="150"></rect>
<rect width="10" height="10" x="153.5" y="150"></rect>
<rect width="10" height="10" x="173.5" y="150"></rect>
<rect width="10" height="10" x="193.5" y="150"></rect>
<rect width="10" height="10" x="213.5" y="150"></rect>
<rect width="10" height="10" x="233.5" y="150"></rect>
<rect width="10" height="10" x="253.5" y="150"></rect>
<rect width="10" height="10" x="273.5" y="150"></rect>
<rect width="10" height="10" x="3.5" y="160"></rect>
<rect width="10" height="10" x="23.5" y="160"></rect>
<rect width="10" height="10" x="43.5" y="160"></rect>
<rect width="10" height="10" x="63.5" y="160"></rect>
<rect width="10" height="10" x="83.5" y="160"></rect>
<rect width="10" height="10" x="103.5" y="160"></rect>
<rect width="10" height="10" x="123.5" y="160"></rect>
<rect width="10" height="10" x="143.5" y="160"></rect>
<rect width="10" height="10" x="163.5" y="160"></rect>
<rect width="10" height="10" x="183.5" y="160"></rect>
<rect width="10" height="10" x="203.5" y="160"></rect>
<rect width="10" height="10" x="223.5" y="160"></rect>
<rect width="10" height="10" x="243.5" y="160"></rect>
<rect width="10" height="10" x="263.5" y="160"></rect>
<rect width="10" height="10" x="283.5" y="160"></rect>
<rect width="10" height="10" x="13.5" y="170"></rect>
<rect width="10" height="10" x="33.5" y="170"></rect>
<rect width="10" height="10" x="53.5" y="170"></rect>
<rect width="10" height="10" x="73.5" y="170"></rect>
<rect width="10" height="10" x="93.5" y="170"></rect>
<rect width="10" height="10" x="113.5" y="170"></rect>
<rect width="10" height="10" x="133.5" y="170"></rect>
<rect width="10" height="10" x="153.5" y="170"></rect>
<rect width="10" height="10" x="173.5" y="170"></rect>
<rect width="10" height="10" x="193.5" y="170"></rect>
<rect width="10" height="10" x="213.5" y="170"></rect>
<rect width="10" height="10" x="233.5" y="170"></rect>
<rect width="10" height="10" x="253.5" y="170"></rect>
<rect width="10" height="10" x="273.5" y="170"></rect>
<rect width="10" height="10" x="3.5" y="180"></rect>
<rect width="10" height="10" x="23.5" y="180"></rect>
<rect width="10" height="10" x="43.5" y="180"></rect>
<rect width="10" height="10" x="63.5" y="180"></rect>
<rect width="10" height="10" x="83.5" y="180"></rect>
<rect width="10" height="10" x="103.5" y="180"></rect>
<rect width="10" height="10" x="123.5" y="180"></rect>
<rect width="10" height="10" x="143.5" y="180"></rect>
<rect width="10" height="10" x="163.5" y="180"></rect>
<rect width="10" height="10" x="183.5" y="180"></rect>
<rect width="10" height="10" x="203.5" y="180"></rect>
<rect width="10" height="10" x="223.5" y="180"></rect>
<rect width="10" height="10" x="243.5" y="180"></rect>
<rect width="10" height="10" x="263.5" y="180"></rect>
<rect width="10" height="10" x="283.5" y="180"></rect>
<rect width="10" height="10" x="13.5" y="190"></rect>
<rect width="10" height="10" x="33.5" y="190"></rect>
<rect width="10" height="10" x="53.5" y="190"></rect>
<rect width="10" height="10" x="73.5" y="190"></rect>
<rect width="10" height="10" x="93.5" y="190"></rect>
<rect width="10" height="10" x="113.5" y="190"></rect>
<rect width="10" height="10" x="133.5" y="190"></rect>
<rect width="10" height="10" x="153.5" y="190"></rect>
<rect width="10" height="10" x="173.5" y="190"></rect>
<rect width="10" height="10" x="193.5" y="190"></rect>
<rect width="10" height="10" x="213.5" y="190"></rect>
<rect width="10" height="10" x="233.5" y="190"></rect>
<rect width="10" height="10" x="253.5" y="190"></rect>
<rect width="10" height="10" x="273.5" y="190"></rect>
<rect width="10" height="10" x="3.5" y="200"></rect>
<rect width="10" height="10" x="23.5" y="200"></rect>
<rect width="10" height="10" x="43.5" y="200"></rect>
<rect width="10" height="10" x="63.5" y="200"></rect>
<rect width="10" height="10" x="83.5" y="200"></rect>
<rect width="10" height="10" x="103.5" y="200"></rect>
<rect width="10" height="10" x="123.5" y="200"></rect>
<rect width="10" height="10" x="143.5" y="200"></rect>
<rect width="10" height="10" x="163.5" y="200"></rect>
<rect width="10" height="10" x="183.5" y="200"></rect>
<rect width="10" height="10" x="203.5" y="200"></rect>
<rect width="10" height="10" x="223.5" y="200"></rect>
<rect width="10" height="10" x="243.5" y="200"></rect>
<rect width="10" height="10" x="263.5" y="200"></rect>
<rect width="10" height="10" x="283.5" y="200"></rect>

</g>
</svg>
